<?xml version="1.0" standalone="no"?>
<!DOCTYPE svg PUBLIC "-//W3C//DTD SVG 20010904//EN"
 "http://www.w3.org/TR/2001/REC-SVG-20010904/DTD/svg10.dtd">
<svg version="1.0" xmlns="http://www.w3.org/2000/svg"
 width="111.000000pt" height="111.000000pt" viewBox="0 0 111.000000 111.000000"
 preserveAspectRatio="xMidYMid meet">
<metadata>
Created by potrace 1.14, written by Peter Selinger 2001-2017
</metadata>
<g transform="translate(0.000000,111.000000) scale(0.100000,-0.100000)"
fill="#000000" stroke="none">
<path d="M480 1097 c-32 -14 -223 -119 -230 -126 -3 -3 -27 -17 -53 -31 -58
-30 -87 -62 -109 -116 -14 -33 -17 -83 -18 -265 -1 -336 -14 -316 316 -499 92
-51 104 -55 164 -54 65 0 89 8 180 61 19 11 76 44 125 72 170 98 176 113 175
419 -1 128 -6 237 -12 255 -25 74 -65 105 -331 252 -74 41 -156 53 -207 32z"/>
</g>
</svg>
